<svg version="1.1" id="レイヤー_1" xmlns="http://www.w3.org/2000/svg" x="0" y="0" viewBox="0 0 750.4 118" style="enable-background:new 0 0 750.4 118" xml:space="preserve"><style>.st0{fill:#040000}</style><path class="st0" d="M5.3 113.8c85.7-43.6 130.9-41 212.5 0L223 1C135.2 16.1 80.3 14.9 0 1l5.3 112.8z"/><path d="M200.1 99.5c-74-29.3-104.4-29.7-177.6.4L18.4 9c63.1 10.1 113.4 10.5 185.8.4l-4.1 90.1z" style="fill:#f9f7be"/><path class="st0" d="M50 25.6c-10.1.3-12.2.8-12.6 3.1v41.6c0 1.3.8 1.8 1.6 1.8h10.3c1 0 1.9-1.1 1.9-1.8V55.2s19.4 2.9 20.2-14.6c.7-15.6-16.9-15.1-21.4-15zm1.1 21.6V33.7c3-.1 6.3.4 6.4 7.1.1 5.7-2.3 6.3-6.4 6.4zM94.2 48.5s0 20.1.1 21.8c.1 1 .9 1.6 1.6 1.7 1 .1 8.8.1 9.7.1.8 0 1.5-.6 1.5-1.5s.1-18.2 0-24.7-5-8.3-9.1-8.5c-3.6-.2-8.2 2.8-8.2 2.8V23.9c0-.9-.7-1.4-1.7-1.4h-9.5c-.8 0-1.5.5-1.6 1.4 0 .7-.1 45.6-.1 46.5 0 .7 1 1.7 1.7 1.7.4 0 8.8-.1 9.5-.1.7 0 1.7-.8 1.7-1.7V46.5c1.4-1.1 4.4-.5 4.4 2zM121.4 25.6c4.9-.1 6.2 3.2 6.2 5 0 3-1.6 5.4-6 5.4-3.9 0-6.1-2.3-6.1-5.3.1-2.9 2.4-5.1 5.9-5.1zM116.7 38.2h10.1c.7 0 1.4.6 1.4 1.3 0 .8.1 30.3.1 31 0 .8-.7 1.5-1.3 1.5-.6 0-9.8-.1-10.4-.1s-1.4-.7-1.4-1.3c0-.6.1-30.5.1-31.2-.2-.7.3-1.2 1.4-1.2zM137.7 22.3h9.8c.6 0 1.4.6 1.4 1.3s.1 46.4.1 47.1c0 .8-.8 1.4-1.5 1.4-.6 0-9.5-.1-10.1-.1s-1.4-.7-1.4-1.3V23.8c0-.8.6-1.5 1.7-1.5zM181.8 58.7c-2.6 0-1.9 3.3-7.6 3.4-4.6.1-7.6-3.5-7.6-5.2 0 0 13.7-2.2 15.2-2.4 1.5-.2 2.3-1.6 2.3-5 0-7.2-7.9-12.2-13-12.2-4 0-15.2 2.3-15.2 17.6 0 14.3 8.6 18.4 15.8 18.3 8-.1 12.5-6.3 12.5-12.2-.1-.1-.5-2.3-2.4-2.3zM169 44.5c3.3-.4 3.3 5.3 3.3 5.3-.8.2-6.7.9-6.7.9-.2-3 .6-5.9 3.4-6.2zM67.7 98.3h9.4c1.2 0 1.3 1.3 0 1.3-.8 0-1 1.2-.7 2l3.8 9.3 2.9-6.8s-1.5-4.4-3.4-4.5c-1.1 0-1.2-1.3-.1-1.3h10.9c1 0 1 1.3.1 1.3 0 0-.7-.2-1.5.2-.9.5-1.1 1.1-.8 2.5.4 1.4 3.3 8.2 3.3 8.2s2.4-5.9 3-7.7c.6-1.8.5-2.1 0-2.7-.5-.5-1.3-.4-1.3-.4-.9-.1-1-1.4.1-1.4h6.8c.9 0 .9 1.3 0 1.3-1.1.1-3.2 2.1-4.1 4.1s-3.9 8.4-3.9 8.4.5 1.2 1.4 1.4c.9.2.9.9 0 1.1-.9.2-3.7 2.1-4.1 2.8s-.9 1-1.5-.3-4.4-11.2-4.4-11.2L81 112s.2 1.2.9 1.3c.8.1 1.6 1 .1 1.3-1.1.2-3.1 1.1-3.6 2.1-.6 1-1.2 2.2-2.1-.1-.8-2.3-6-15.5-6-15.5s-1.2-1.7-2.3-1.7-1.3-1.1-.3-1.1zM121.9 102.5s-.6-.7-1.3-1.6c-.7-.9-2.2-3-7-3.1-4.8 0-11.5 4.4-11.5 10.7 0 6.3 4.5 9.1 9.5 9.1s10.4-4 10.9-6.5c.3-1.4-.9-1-1.2-.4-.3.5-2.4 3.7-6.2 3.7-3.9 0-6.3-4-6.8-6 0 0 12.8-4.2 13.8-4.5 1.1-.4.9-.8-.2-1.4zm-6.4 2.2c-1 .3-7.5 2.3-7.5 2.3-.9-5.1 1.9-7.8 3.9-7.8s3.4 2.2 3.9 3c.4.9.7 2.2-.3 2.5zM139.8 97.8c-3.6-.1-5.5 2.6-5.5 2.6V88c0-1-.5-1.2-1.7-.3-2.5 2-6.1 2-7.9 2-1.3 0-1.1 1.2 0 1.2 2.2.1 3.9.8 4 3 0 2.2 0 17.5.1 19.9 0 2.5-1.3 3.4-.5 3.9 1.1.6 1.1-2.1 3.5-2.1 2.5 0 3.8 2.2 8.2 2.2 6.7 0 9.6-6 9.5-9.7-.3-7.8-6.1-10.2-9.7-10.3zm-1 18.6c-2.7 0-4.6-2.2-4.6-8.5s2.3-8.9 4.9-8.9c2.3 0 4 2.8 4 8.2.1 6.7-1.9 9.3-4.3 9.2z"/><g><path d="M266.6 20.9H264l-1.7-4.8h-8.4l-1.7 4.8h-2.6l7-18.9h3l7 18.9zm-8.5-16.8-3.5 9.9h6.9l-3.4-9.9zM279.6 20.9h-3.2L269.6 2h2.6l5.9 16.7L283.9 2h2.6l-6.9 18.9zM303.4 2l-9.1 18.9h-1.9L301.5 2h1.9zM312.2 18.2c5-2.4 9-6.2 12.1-10.7H313v-2h11.7V1.3h2.1v4.2h6.2v2h-6.2v11.7c0 1.8-.7 2.8-3.2 2.8-1.5 0-2.6-.1-3.5-.2l-.2-2.1c.7.1 2.1.2 3.5.2.4 0 1.3 0 1.3-1.1v-8.7c-2.9 4.1-6.8 7.4-11.2 9.7l-1.3-1.6zM358.6 10.5v2.3h-21.3v-2.3h21.3zM383.1 8.5v2H375c0 7.5-3.4 10.4-9.8 11.7l-.9-1.9c5.5-1.1 8.5-2.9 8.4-9.7H363v-2h20.1zm-3.9-6.2v1.9h-14V2.3h14zm1.4 2c-.2-1.2-.6-2.4-1.1-3.5l1.5-.4c.5 1.1.9 2.3 1.2 3.5l-1.6.4zm2.7-.3c-.5-1.7-.6-2.3-1.2-3.6l1.4-.4c.5 1 1.1 2.6 1.3 3.5l-1.5.5zM397.7 22.3h-2v-8.9c-2.6 1.8-4.6 2.8-7.6 3.8l-1-1.8c6.7-2.3 11.3-6.1 14.2-9.9l1.8 1.3c-2.2 2.3-3.4 3.5-5.4 5.1v10.4zM407 18.2c5-2.4 9-6.2 12.1-10.7h-11.3v-2h11.7V1.3h2.1v4.2h6.2v2h-6.2v11.7c0 1.8-.7 2.8-3.2 2.8-1.5 0-2.6-.1-3.5-.2l-.2-2.1c.7.1 2.1.2 3.5.2.4 0 1.3 0 1.3-1.1v-8.7c-2.9 4.1-6.8 7.4-11.2 9.7l-1.3-1.6zM448.2 2l-9.1 18.9h-1.9L446.3 2h1.9zM476.5 6.1v4.2c0 2.6-.3 7.1-.7 8.8-.8 2.9-2.8 2.9-4.2 2.9-1.9 0-3.4-.3-4-.4l-.1-2.2c.7.1 2.4.4 3.9.4 1.6 0 1.8-.4 2.2-1.6.4-1.2.7-6.1.7-7.4V8.1h-7.5c-.9 6.3-3.2 10.7-8.3 13.9l-1.5-1.6c3.3-1.9 6.5-5.1 7.6-12.4H458V6h6.9c.2-1.7.2-3.3.2-4.6l2.4.1c-.1 1.5-.1 2.9-.3 4.5h9.3zM473.7 5c-.4-1.8-.8-3-1.2-3.9l1.7-.4c.7 1.6 1 2.7 1.3 3.8l-1.8.5zm3.1-.3c-.5-2.1-1-3.2-1.3-3.8l1.7-.4c.5 1.2.9 2.1 1.3 3.8l-1.7.4zM488.4 12.4c-2.3-1.2-4.5-2.1-6.8-2.8l.9-1.9c2.1.6 5 1.6 6.9 2.7l-1 2zm-6 6.9c9.9-.9 14-4.2 17.1-13.5l2.1.9c-3.1 8.9-7.3 13.5-18.2 14.8l-1-2.2zm7.9-12.5c-1.8-1-4.1-2-6.8-2.7l.9-1.9c3.2.9 5.5 1.9 6.9 2.6l-1 2zm7.5-1.7c-.3-1.1-.4-1.4-1.5-3.7l1.6-.5c.8 1.4 1.2 2.1 1.6 3.6l-1.7.6zm3.2-.8c-1-2.3-1.1-2.6-1.6-3.5l1.6-.5c.5.7.9 1.5 1.7 3.4l-1.7.6zM521 7.4v1.9h-6.1V19h7.2v1.9h-16.4V19h7.2V9.3h-6.1V7.4H521zM528.1 13.9c-.5-2.6-1.3-4.5-1.9-5.8l1.9-.5c1.3 2.6 1.8 4.5 2.1 5.8l-2.1.5zm0 6.6c7.7-1.7 10.7-4.9 12.1-13.4l2.1.4c-1.4 6.9-3.4 12.6-13.3 14.9l-.9-1.9zm5.2-7.6c-.2-1.4-.6-3.4-1.6-5.7l1.9-.5c1.1 3 1.4 3.7 1.7 5.7l-2 .5zM549.9 1.2v6.4c5.4 1.5 9.3 3.6 12.2 5.4l-1.2 2.1c-4.4-2.6-6.8-3.8-11.1-5.3v12.6h-2.3V1.2h2.4zM604.6 3.1c-.5 5.9-2.1 16.2-15.7 18.7l-.9-2c12.2-2 13.4-10.4 13.9-14.6h-16.3v-2h19zM625.7 6.4c-.7 3.7-2.2 6.3-6 8.2l-1.2-1.6c2.3-1 3.7-2.1 4.6-4.7h-13.8V6.4h16.4zm-15.9 14.3c5.4-2.5 5.9-6.1 5.9-10.8h2c-.2 5.5-1.2 9.3-6.7 12.2l-1.2-1.4zM642.7 22.2h-2.3V10.4c-.8.5-4.7 3-9.6 4.8l-1.3-1.8c3.5-1.2 12-4.7 17.8-12l2.1 1.4c-.9 1-3.7 3.7-6.7 6v13.4zM660.4 8.7c0 2.6-.5 5.9-1.3 8.4-.9 2.9-2.7 4.5-3.6 5.3l-1.6-1.6c1-1 2.6-2.6 3.4-5.6.3-1.3.8-4.3.8-6.1V2.2h2.3v6.5zm6.5 10.5c4.4-1.1 6.6-4.3 7.6-9.7l2 .8c-2 10.3-9.2 11.2-11.9 11.4V1.5h2.2v17.7zM691.2 1.1V5h8c.2 4.6-.8 10.1-4.3 13.1-2.3 2-6.1 3.5-10.8 3.8l-.7-2.1c10.6-.9 13.5-5.7 13.5-13H683V13h-2.1V5h7.9V1.1h2.4zM719.5 7.4v1.9h-6.1V19h7.2v1.9h-16.4V19h7.2V9.3h-6.1V7.4h14.2zM743.8 4.2c-.3 4.4-1.6 15.5-15.2 17.9l-1.1-2.1c7.3-1.2 12.6-4.6 13.8-13.8h-16v-2h18.5zm-2.6-.6c-.2-1-.8-2.3-1.2-3.1l1.7-.4c.3.6.9 1.7 1.3 3l-1.8.5zm3.5 0c-.2-.9-.9-2.4-1.3-3.2L745 0c.6 1 1 2.1 1.3 3.1l-1.6.5z"/></g><g><path d="M285.4 47.8c13.8 0 19.6 5.1 19.6 21.3 0 14.6-3.9 21.7-20 21.7h-23.3v20.1h-14.3v-63h38zm-23.7 13.1v16.7h21c5.4 0 7.8-1.2 7.8-8.4 0-8-3.1-8.3-7.8-8.3h-21zM331.5 47.8v24h30.7v-24h14.4v63h-14.4V84.9h-30.7v25.9h-14.3v-63h14.3zM408.5 47.8v63H394v-63h14.5zM440.3 47.8v49.9h33.6v13.1H426v-63h14.3zM536.7 47.8v13.1h-36.3v11.7h34.9v12.6h-34.9v12.6h37.2v13.1H486v-63h50.7zM559 47.8l14.2 58.8 14-58.8h7.8l14 58.8 14.2-58.8h5.8l-16.1 63h-7.8l-14-58.8-14 58.8h-7.8l-16.1-63h5.8zM686 47.8v4.7h-37.8V76h35.7v4.7h-35.7v25.4h38.2v4.7h-43.5v-63H686zM731.5 47.8c7.1 0 16.8 2.6 16.8 15.9 0 4.4-1 11.4-8.2 14.2 3 1 10.2 3.5 10.2 15.3 0 12.2-5.9 17.6-17.7 17.6H703v-63h28.5zm-23.2 4.7V76h21.2c5.2 0 13.4-.3 13.4-12.5 0-11-9-11-13-11h-21.6zm0 28.3v25.4h23.9c8.8 0 12.8-3.6 12.8-12.7 0-12.6-9.8-12.6-14.6-12.6h-22.1z"/></g></svg>