<svg id="design" xmlns="http://www.w3.org/2000/svg" viewBox="0 0 265.8 70.9"><defs><style>.cls-1{fill:#fff;}</style></defs><path class="cls-1" d="M36.1,0a.6.6,0,0,0-.6.6v7A27.7,27.7,0,0,0,7.6,35.5H.6a.6.6,0,0,0-.6.6A35.1,35.1,0,0,0,10.4,60.5h0A35.1,35.1,0,0,0,34.8,70.9a.7.7,0,0,0,.7-.6v-7a27,27,0,0,0,19.7-8.1,27,27,0,0,0,8.1-19.7h7a.7.7,0,0,0,.6-.7A35.5,35.5,0,0,0,36.1,0ZM56.3,35.5H52a.8.8,0,0,0-.9.8,16.1,16.1,0,0,1-4.5,10.3,16.1,16.1,0,0,1-10.3,4.5.8.8,0,0,0-.8.9v4.3a21.5,21.5,0,0,1-14.8-6.1,21.4,21.4,0,0,1-6.1-14.7h4.3a.9.9,0,0,0,.9-.9,16.1,16.1,0,0,1,4.5-10.3,16.1,16.1,0,0,1,10.3-4.5.9.9,0,0,0,.9-.9V14.6a21.1,21.1,0,0,1,14.7,6.1A20.7,20.7,0,0,1,56.3,35.5Z"/><polygon class="cls-1" points="186.4 40.6 186.4 51.9 197.4 51.9 197.4 35.9 183.3 35.9 183.3 23.6 187.5 23.6 187.5 32.2 197.4 32.2 197.4 17.7 201.7 17.7 201.7 32.2 211.6 32.2 211.6 23.6 215.8 23.6 215.8 35.9 201.7 35.9 201.7 51.9 212.7 51.9 212.7 40.6 217 40.6 217 55.7 182.1 55.7 182.1 40.6 186.4 40.6"/><path class="cls-1" d="M121.2,55.7H93V36.8h28.2ZM117,40.5H97.2v3.9H117Zm0,7.4H97.2V52H117Z"/><path class="cls-1" d="M115.4,30.3l1.2-5.5h6V21H109.2V17.7H105V21H91.6v3.8h6l1.2,5.5H89.7v3.8h34.8V30.3Zm-3.9,0h-8.8l-1.1-5.5h11Z"/><path class="cls-1" d="M259.6,47.7c3.7-6.2,4.7-14.8,5.2-18.4H249.6V22.6h15.2v-4H245.7V38.7c0,7.8-2,13-3.6,15.9V37.7h-7.8V32.1h9.5V28.4h-2.4V18.6h-3.9v9.8h-3.2V18.6h-3.6V36.8c0,10.1-2.1,16.2-3.3,18.9h4.1c1.8-4.1,2.3-9.6,2.6-14.2h4.1V55.7h7.4c2-3.3,4-7.8,4-16.7V33.1h10.6c-.8,5.9-2.1,9.5-3.2,11.3a27.2,27.2,0,0,1-2.4-8h-3.7a31.7,31.7,0,0,0,3.7,11.3,51.7,51.7,0,0,1-6.9,8H253c1.1-1.1,2.1-2.5,4.1-4.7a39.4,39.4,0,0,0,4.1,4.7h4.6A42.9,42.9,0,0,1,259.6,47.7Z"/><path class="cls-1" d="M134.1,30.3H169v3.8H159V50.8a.9.9,0,0,0,.9.9h6a.9.9,0,0,0,.9-.9v-5h4.1v7.7a2.2,2.2,0,0,1-2.2,2.2H157a2.2,2.2,0,0,1-2.2-2.2V34.1H148c-.3,11.9-3.2,16.1-6.1,19a22.2,22.2,0,0,1-3.5,2.6h-6.2l3.5-2.6a18,18,0,0,0,5.4-6.1c1.8-3.3,2.4-6.7,2.6-12.9h-9.6ZM136.3,20h30.5v3.5H136.3Z"/></svg>